<svg xmlns="http://www.w3.org/2000/svg" width="240.391" height="108.994" viewBox="0 0 240.391 108.994"><path d="M-236.572,0V-27.783h-21.68V0h-12.012V-63.818h12.012v25.635h21.68V-63.818h12.012V0Zm54.541-10-.293-6.494a33.811,33.811,0,0,1-3.271,3.052,20.326,20.326,0,0,1-3.76,2.417,20.144,20.144,0,0,1-4.468,1.587,23.411,23.411,0,0,1-5.3.562A18.347,18.347,0,0,1-205.811-10a13.487,13.487,0,0,1-4.834-3.125,13.037,13.037,0,0,1-2.954-4.834,18.646,18.646,0,0,1-1-6.25A14.316,14.316,0,0,1-213.11-30.7a13.838,13.838,0,0,1,4.541-5.127,23.843,23.843,0,0,1,7.617-3.369,41.773,41.773,0,0,1,10.718-1.221h6.494V-43.4a10.394,10.394,0,0,0-.537-3.442,6.2,6.2,0,0,0-1.733-2.612,8.159,8.159,0,0,0-3.1-1.66A16.133,16.133,0,0,0-193.8-51.7a37.87,37.87,0,0,0-8.667,1,45.077,45.077,0,0,0-8.276,2.808v-9.521a47.445,47.445,0,0,1,8.228-2.344,49.569,49.569,0,0,1,9.692-.928,37.3,37.3,0,0,1,9.473,1.05,17.043,17.043,0,0,1,6.519,3.149,12.505,12.505,0,0,1,3.784,5.249,20.271,20.271,0,0,1,1.221,7.349V-10Zm-1.709-21.924h-7.275a19.321,19.321,0,0,0-5.127.586,9.818,9.818,0,0,0-3.418,1.611,6.311,6.311,0,0,0-1.929,2.368,6.822,6.822,0,0,0-.61,2.856,5.6,5.6,0,0,0,1.953,4.614,8.2,8.2,0,0,0,5.322,1.587,9.316,9.316,0,0,0,5.176-1.807,37.348,37.348,0,0,0,5.908-5.176ZM-127.051-20l-.293-6.494a33.811,33.811,0,0,1-3.271,3.052,20.326,20.326,0,0,1-3.76,2.417,20.144,20.144,0,0,1-4.468,1.587,23.411,23.411,0,0,1-5.3.562A18.347,18.347,0,0,1-150.83-20a13.487,13.487,0,0,1-4.834-3.125,13.037,13.037,0,0,1-2.954-4.834,18.646,18.646,0,0,1-1-6.25A14.316,14.316,0,0,1-158.13-40.7a13.838,13.838,0,0,1,4.541-5.127,23.843,23.843,0,0,1,7.617-3.369,41.773,41.773,0,0,1,10.718-1.221h6.494V-53.4a10.394,10.394,0,0,0-.537-3.442,6.2,6.2,0,0,0-1.733-2.612,8.159,8.159,0,0,0-3.1-1.66,16.133,16.133,0,0,0-4.687-.586,37.87,37.87,0,0,0-8.667,1,45.077,45.077,0,0,0-8.276,2.808v-9.521a47.445,47.445,0,0,1,8.228-2.344,49.569,49.569,0,0,1,9.692-.928,37.3,37.3,0,0,1,9.473,1.05,17.043,17.043,0,0,1,6.519,3.149,12.505,12.505,0,0,1,3.784,5.249,20.271,20.271,0,0,1,1.221,7.349V-20Zm-1.709-21.924h-7.275a19.321,19.321,0,0,0-5.127.586,9.818,9.818,0,0,0-3.418,1.611,6.311,6.311,0,0,0-1.929,2.368,6.822,6.822,0,0,0-.61,2.856,5.6,5.6,0,0,0,1.953,4.614,8.2,8.2,0,0,0,5.322,1.587,9.316,9.316,0,0,0,5.176-1.807,37.348,37.348,0,0,0,5.908-5.176ZM-72.07-30l-.293-6.494a33.811,33.811,0,0,1-3.271,3.052,20.326,20.326,0,0,1-3.76,2.417,20.144,20.144,0,0,1-4.468,1.587,23.411,23.411,0,0,1-5.3.562A18.347,18.347,0,0,1-95.85-30a13.487,13.487,0,0,1-4.834-3.125,13.037,13.037,0,0,1-2.954-4.834,18.645,18.645,0,0,1-1-6.25,14.316,14.316,0,0,1,1.489-6.494,13.838,13.838,0,0,1,4.541-5.127A23.843,23.843,0,0,1-90.991-59.2,41.773,41.773,0,0,1-80.273-60.42h6.494V-63.4a10.394,10.394,0,0,0-.537-3.442,6.2,6.2,0,0,0-1.733-2.612,8.159,8.159,0,0,0-3.1-1.66,16.133,16.133,0,0,0-4.687-.586,37.87,37.87,0,0,0-8.667,1,45.078,45.078,0,0,0-8.276,2.808v-9.521a47.445,47.445,0,0,1,8.228-2.344,49.569,49.569,0,0,1,9.692-.928,37.3,37.3,0,0,1,9.473,1.05,17.043,17.043,0,0,1,6.519,3.149,12.505,12.505,0,0,1,3.784,5.249,20.271,20.271,0,0,1,1.221,7.349V-30Zm-1.709-21.924h-7.275a19.321,19.321,0,0,0-5.127.586A9.818,9.818,0,0,0-89.6-49.727a6.311,6.311,0,0,0-1.929,2.368,6.822,6.822,0,0,0-.61,2.856,5.6,5.6,0,0,0,1.953,4.614A8.2,8.2,0,0,0-84.863-38.3a9.316,9.316,0,0,0,5.176-1.807,37.348,37.348,0,0,0,5.908-5.176Zm41.416-7.9H-42.568l-1.807-49.17h13.818Zm-5.127,5.713a7.534,7.534,0,0,1,2.954.586,7.488,7.488,0,0,1,2.417,1.611A7.825,7.825,0,0,1-30.483-49.5a7.393,7.393,0,0,1,.61,3,7.393,7.393,0,0,1-.61,3,7.825,7.825,0,0,1-1.636,2.417,7.488,7.488,0,0,1-2.417,1.611,7.534,7.534,0,0,1-2.954.586,7.534,7.534,0,0,1-2.954-.586,7.488,7.488,0,0,1-2.417-1.611,7.488,7.488,0,0,1-1.611-2.417,7.659,7.659,0,0,1-.586-3,7.659,7.659,0,0,1,.586-3,7.488,7.488,0,0,1,1.611-2.417,7.488,7.488,0,0,1,2.417-1.611A7.534,7.534,0,0,1-37.49-54.111Z" transform="translate(270.264 108.994)"/></svg>