<svg xmlns="http://www.w3.org/2000/svg" width="240.391" height="108.999" viewBox="0 0 240.391 108.999"><path d="M-236.572-40V-67.783h-21.68V-40h-12.012v-63.818h12.012v25.635h21.68v-25.635h12.012V-40Zm68.115-35.2a32.974,32.974,0,0,1-1.66,10.718,23.712,23.712,0,0,1-4.785,8.325,21.2,21.2,0,0,1-7.666,5.371,26.56,26.56,0,0,1-10.352,1.9,28.236,28.236,0,0,1-9.863-1.611,19.159,19.159,0,0,1-7.373-4.81,21.289,21.289,0,0,1-4.639-8.008,35.3,35.3,0,0,1-1.611-11.206,32.478,32.478,0,0,1,1.685-10.742,23.333,23.333,0,0,1,4.834-8.252,21.46,21.46,0,0,1,7.69-5.3,26.591,26.591,0,0,1,10.254-1.88,28.006,28.006,0,0,1,9.912,1.636,19.265,19.265,0,0,1,7.373,4.858,21.309,21.309,0,0,1,4.614,7.983A34.817,34.817,0,0,1-168.457-75.2Zm-12.4.293q0-7.715-2.9-11.6t-8.569-3.882a10.81,10.81,0,0,0-5.322,1.221,10.3,10.3,0,0,0-3.613,3.345,14.962,14.962,0,0,0-2.075,4.956A26.656,26.656,0,0,0-204-74.8q0,7.764,3.125,11.694a10.326,10.326,0,0,0,8.545,3.931,10.664,10.664,0,0,0,5.176-1.2,9.688,9.688,0,0,0,3.564-3.32,16,16,0,0,0,2.051-5,26.815,26.815,0,0,0,.68-6.2Zm67.38-10.293a32.974,32.974,0,0,1-1.66,10.718,23.712,23.712,0,0,1-4.785,8.325,21.2,21.2,0,0,1-7.666,5.371,26.56,26.56,0,0,1-10.352,1.9A28.236,28.236,0,0,1-147.8-60.5a19.159,19.159,0,0,1-7.373-4.81,21.289,21.289,0,0,1-4.639-8.008,35.3,35.3,0,0,1-1.611-11.206,32.478,32.478,0,0,1,1.685-10.742,23.333,23.333,0,0,1,4.834-8.252,21.46,21.46,0,0,1,7.69-5.3,26.591,26.591,0,0,1,10.254-1.88,28.006,28.006,0,0,1,9.912,1.636,19.265,19.265,0,0,1,7.373,4.858,21.309,21.309,0,0,1,4.614,7.983A34.817,34.817,0,0,1-113.477-85.2Zm-12.4.293q0-7.715-2.9-11.6t-8.569-3.882a10.81,10.81,0,0,0-5.322,1.221,10.3,10.3,0,0,0-3.613,3.345,14.962,14.962,0,0,0-2.075,4.956,26.657,26.657,0,0,0-.659,6.055q0,7.764,3.125,11.694a10.326,10.326,0,0,0,8.545,3.931,10.664,10.664,0,0,0,5.176-1.2,9.688,9.688,0,0,0,3.564-3.32,16,16,0,0,0,2.051-5,26.814,26.814,0,0,0,.68-6.193ZM-58.5-95.2a32.974,32.974,0,0,1-1.66,10.718,23.712,23.712,0,0,1-4.785,8.325,21.2,21.2,0,0,1-7.666,5.371,26.56,26.56,0,0,1-10.352,1.9A28.236,28.236,0,0,1-92.826-70.5a19.159,19.159,0,0,1-7.374-4.8,21.289,21.289,0,0,1-4.639-8.008,35.3,35.3,0,0,1-1.611-11.206,32.478,32.478,0,0,1,1.685-10.742,23.333,23.333,0,0,1,4.834-8.252,21.46,21.46,0,0,1,7.69-5.3,26.591,26.591,0,0,1,10.254-1.88,28.006,28.006,0,0,1,9.912,1.636,19.265,19.265,0,0,1,7.373,4.858,21.309,21.309,0,0,1,4.614,7.983A34.817,34.817,0,0,1-58.5-95.2Zm-12.4.293q0-7.715-2.9-11.6t-8.569-3.882A10.81,10.81,0,0,0-87.7-109.16a10.3,10.3,0,0,0-3.613,3.345,14.962,14.962,0,0,0-2.075,4.956,26.657,26.657,0,0,0-.659,6.055q0,7.764,3.125,11.694a10.326,10.326,0,0,0,8.545,3.931,10.664,10.664,0,0,0,5.176-1.2,9.688,9.688,0,0,0,3.564-3.32,16,16,0,0,0,2.051-5,26.814,26.814,0,0,0,.686-6.2Zm38.535-4.922h-10.2L-44.375-149h13.818Zm-5.127,5.713a7.534,7.534,0,0,1,2.954.586,7.488,7.488,0,0,1,2.417,1.611A7.825,7.825,0,0,1-30.483-89.5a7.393,7.393,0,0,1,.61,3,7.393,7.393,0,0,1-.61,3,7.825,7.825,0,0,1-1.636,2.417,7.488,7.488,0,0,1-2.417,1.611,7.534,7.534,0,0,1-2.954.586,7.534,7.534,0,0,1-2.954-.586,7.488,7.488,0,0,1-2.417-1.611A7.488,7.488,0,0,1-44.472-83.5a7.659,7.659,0,0,1-.586-3,7.659,7.659,0,0,1,.586-3,7.488,7.488,0,0,1,1.611-2.417,7.488,7.488,0,0,1,2.417-1.611,7.534,7.534,0,0,1,2.954-.583Z" transform="translate(270.264 148.999)"/></svg>