<svg xmlns="http://www.w3.org/2000/svg" width="214.799" height="80.699" viewBox="0 0 214.799 80.699"><path d="M-445.02,0h-14.111l-6.3-19.678-2.3-8.008-2.2,8.2L-476.123,0h-13.525l-3.564-63.818h10.6L-481.1-22.9l.391,11.182,2.881-9.961,7.031-22.705h7.568l7.422,24.072,2.393,8.5.2-9.961,1.611-42.041h10.2Zm56.641-35.2a32.973,32.973,0,0,1-1.66,10.718,23.712,23.712,0,0,1-4.785,8.325,21.2,21.2,0,0,1-7.666,5.371,26.56,26.56,0,0,1-10.352,1.9A28.236,28.236,0,0,1-422.7-10.5a19.159,19.159,0,0,1-7.373-4.81,21.29,21.29,0,0,1-4.639-8.008,35.3,35.3,0,0,1-1.611-11.206,32.479,32.479,0,0,1,1.685-10.742,23.332,23.332,0,0,1,4.834-8.252,21.46,21.46,0,0,1,7.69-5.3,26.591,26.591,0,0,1,10.254-1.88,28.006,28.006,0,0,1,9.912,1.636A19.265,19.265,0,0,1-394.58-54.2a21.309,21.309,0,0,1,4.614,7.983A34.815,34.815,0,0,1-388.379-35.2Zm-12.4.293q0-7.715-2.9-11.6t-8.569-3.882a10.81,10.81,0,0,0-5.322,1.221,10.3,10.3,0,0,0-3.613,3.345,14.963,14.963,0,0,0-2.075,4.956,26.657,26.657,0,0,0-.659,6.055q0,7.764,3.125,11.694a10.326,10.326,0,0,0,8.545,3.931,10.664,10.664,0,0,0,5.176-1.2,9.688,9.688,0,0,0,3.564-3.32,16,16,0,0,0,2.051-5,26.813,26.813,0,0,0,.68-6.193ZM-333.4-45.2a32.973,32.973,0,0,1-1.66,10.718,23.712,23.712,0,0,1-4.785,8.325,21.2,21.2,0,0,1-7.666,5.371,26.56,26.56,0,0,1-10.352,1.9,28.236,28.236,0,0,1-9.863-1.611,19.159,19.159,0,0,1-7.374-4.8,21.29,21.29,0,0,1-4.639-8.008,35.3,35.3,0,0,1-1.611-11.206,32.478,32.478,0,0,1,1.685-10.742,23.332,23.332,0,0,1,4.834-8.252,21.46,21.46,0,0,1,7.69-5.3,26.591,26.591,0,0,1,10.254-1.88,28.006,28.006,0,0,1,9.912,1.636,19.265,19.265,0,0,1,7.373,4.858,21.309,21.309,0,0,1,4.614,7.983A34.816,34.816,0,0,1-333.4-45.2Zm-12.4.293q0-7.715-2.9-11.6t-8.569-3.882A10.81,10.81,0,0,0-362.6-59.16a10.3,10.3,0,0,0-3.613,3.345,14.961,14.961,0,0,0-2.075,4.956,26.655,26.655,0,0,0-.659,6.055q0,7.764,3.125,11.694a10.326,10.326,0,0,0,8.545,3.931,10.664,10.664,0,0,0,5.176-1.2,9.688,9.688,0,0,0,3.564-3.32,16,16,0,0,0,2.051-5,26.814,26.814,0,0,0,.686-6.2ZM-278.418-55.2a32.974,32.974,0,0,1-1.66,10.718,23.712,23.712,0,0,1-4.785,8.325,21.2,21.2,0,0,1-7.666,5.371,26.56,26.56,0,0,1-10.352,1.9,28.236,28.236,0,0,1-9.863-1.611,19.159,19.159,0,0,1-7.373-4.81,21.29,21.29,0,0,1-4.639-8.008,35.3,35.3,0,0,1-1.611-11.206,32.478,32.478,0,0,1,1.685-10.742,23.333,23.333,0,0,1,4.834-8.252,21.46,21.46,0,0,1,7.69-5.3,26.591,26.591,0,0,1,10.254-1.88,28.006,28.006,0,0,1,9.912,1.636,19.265,19.265,0,0,1,7.373,4.858,21.309,21.309,0,0,1,4.619,8A34.816,34.816,0,0,1-278.418-55.2Zm-12.4.293q0-7.715-2.9-11.6t-8.569-3.882a10.81,10.81,0,0,0-5.322,1.221,10.3,10.3,0,0,0-3.613,3.345,14.961,14.961,0,0,0-2.075,4.956,26.659,26.659,0,0,0-.659,6.055q0,7.764,3.125,11.694a10.326,10.326,0,0,0,8.545,3.931,10.664,10.664,0,0,0,5.176-1.2,9.688,9.688,0,0,0,3.564-3.32,16,16,0,0,0,2.051-5,26.813,26.813,0,0,0,.68-6.193Z" transform="translate(493.212 80.699)"/></svg>