<svg xmlns="http://www.w3.org/2000/svg" width="212.551" height="80.691" viewBox="0 0 212.551 80.691"><path d="M-461.377-22.607V0h-12.207V-22.51l-20.752-41.309h13.33l9.375,19.727,4.3,9.668,4.3-9.961,9.814-19.434h12.793ZM-401.953-10l-.293-6.494a33.81,33.81,0,0,1-3.271,3.052,20.329,20.329,0,0,1-3.76,2.417,20.143,20.143,0,0,1-4.468,1.587,23.411,23.411,0,0,1-5.3.562A18.347,18.347,0,0,1-425.732-10a13.487,13.487,0,0,1-4.834-3.125,13.038,13.038,0,0,1-2.954-4.834,18.644,18.644,0,0,1-1-6.25,14.317,14.317,0,0,1,1.489-6.494,13.838,13.838,0,0,1,4.541-5.127,23.843,23.843,0,0,1,7.617-3.369,41.772,41.772,0,0,1,10.718-1.221h6.494V-43.4a10.394,10.394,0,0,0-.537-3.442,6.2,6.2,0,0,0-1.733-2.612,8.159,8.159,0,0,0-3.1-1.66,16.133,16.133,0,0,0-4.687-.586,37.869,37.869,0,0,0-8.667,1,45.077,45.077,0,0,0-8.276,2.808v-9.521a47.444,47.444,0,0,1,8.228-2.344,49.568,49.568,0,0,1,9.692-.928,37.3,37.3,0,0,1,9.473,1.05,17.043,17.043,0,0,1,6.519,3.149,12.505,12.505,0,0,1,3.784,5.249,20.271,20.271,0,0,1,1.221,7.349V-10Zm-1.709-21.924h-7.275a19.321,19.321,0,0,0-5.127.586,9.818,9.818,0,0,0-3.418,1.611,6.312,6.312,0,0,0-1.929,2.368,6.824,6.824,0,0,0-.61,2.856,5.6,5.6,0,0,0,1.953,4.614,8.2,8.2,0,0,0,5.322,1.587,9.316,9.316,0,0,0,5.176-1.807,37.346,37.346,0,0,0,5.908-5.176ZM-346.973-20l-.293-6.494a33.81,33.81,0,0,1-3.271,3.052,20.328,20.328,0,0,1-3.76,2.417,20.144,20.144,0,0,1-4.468,1.587,23.411,23.411,0,0,1-5.3.562A18.347,18.347,0,0,1-370.752-20a13.487,13.487,0,0,1-4.834-3.125,13.037,13.037,0,0,1-2.954-4.834,18.644,18.644,0,0,1-1-6.25,14.317,14.317,0,0,1,1.489-6.494,13.838,13.838,0,0,1,4.541-5.127,23.843,23.843,0,0,1,7.617-3.369,41.773,41.773,0,0,1,10.718-1.221h6.494V-53.4a10.394,10.394,0,0,0-.537-3.442,6.2,6.2,0,0,0-1.733-2.612,8.159,8.159,0,0,0-3.1-1.66,16.133,16.133,0,0,0-4.687-.586,37.869,37.869,0,0,0-8.667,1,45.079,45.079,0,0,0-8.276,2.808v-9.521a47.444,47.444,0,0,1,8.228-2.344,49.569,49.569,0,0,1,9.692-.928,37.3,37.3,0,0,1,9.473,1.05,17.043,17.043,0,0,1,6.519,3.149,12.505,12.505,0,0,1,3.784,5.249,20.271,20.271,0,0,1,1.221,7.349V-20Zm-1.709-21.924h-7.275a19.321,19.321,0,0,0-5.127.586,9.817,9.817,0,0,0-3.418,1.611,6.311,6.311,0,0,0-1.929,2.368,6.821,6.821,0,0,0-.61,2.856,5.6,5.6,0,0,0,1.953,4.614,8.2,8.2,0,0,0,5.322,1.587,9.316,9.316,0,0,0,5.176-1.807,37.347,37.347,0,0,0,5.908-5.176ZM-291.992-30l-.293-6.494a33.81,33.81,0,0,1-3.271,3.052,20.327,20.327,0,0,1-3.76,2.417,20.143,20.143,0,0,1-4.468,1.587,23.411,23.411,0,0,1-5.3.562A18.347,18.347,0,0,1-315.771-30a13.487,13.487,0,0,1-4.834-3.125,13.037,13.037,0,0,1-2.954-4.834,18.645,18.645,0,0,1-1-6.25A14.317,14.317,0,0,1-323.07-50.7a13.838,13.838,0,0,1,4.541-5.127,23.843,23.843,0,0,1,7.617-3.369A41.773,41.773,0,0,1-300.2-60.42h6.494V-63.4a10.393,10.393,0,0,0-.537-3.442,6.2,6.2,0,0,0-1.733-2.612,8.159,8.159,0,0,0-3.1-1.66,16.133,16.133,0,0,0-4.687-.586,37.87,37.87,0,0,0-8.667,1,45.078,45.078,0,0,0-8.276,2.808v-9.521a47.445,47.445,0,0,1,8.228-2.344,49.568,49.568,0,0,1,9.692-.928,37.3,37.3,0,0,1,9.473,1.05,17.043,17.043,0,0,1,6.519,3.149,12.5,12.5,0,0,1,3.784,5.249,20.271,20.271,0,0,1,1.221,7.349V-30ZM-293.7-51.924h-7.275a19.321,19.321,0,0,0-5.127.586,9.818,9.818,0,0,0-3.418,1.611,6.311,6.311,0,0,0-1.929,2.368,6.821,6.821,0,0,0-.61,2.856,5.6,5.6,0,0,0,1.953,4.614,8.2,8.2,0,0,0,5.322,1.587,9.316,9.316,0,0,0,5.176-1.807,37.346,37.346,0,0,0,5.908-5.176Z" transform="translate(494.336 80.691)"/></svg>